<svg fill="#FFF" viewBox="0 0 512.001 512.001" xmlns="http://www.w3.org/2000/svg"><path d="M397.928 499.365 256 410.546l-141.928 88.819a14.998 14.998 0 0 1-22.508-16.354l40.627-162.484L5.302 212.995a15.001 15.001 0 0 1 8.653-26.407l165.516-11.562 62.618-155.285a15 15 0 0 1 27.822 0l62.618 155.285 165.516 11.562a14.999 14.999 0 0 1 8.653 26.407L379.81 320.528l40.627 162.484a15 15 0 0 1-22.509 16.353zm-133.97-119.23 118.353 74.066-33.867-135.447a14.998 14.998 0 0 1 4.854-15.082l105.878-89.726-138.093-9.646a14.996 14.996 0 0 1-12.866-9.354L256.001 65.46l-52.215 129.486a15 15 0 0 1-12.866 9.354l-138.093 9.646 105.878 89.726a15.003 15.003 0 0 1 4.854 15.082l-33.867 135.447 118.353-74.066a14.998 14.998 0 0 1 15.913 0z"/></svg>