<svg fill="none" viewBox="0 0 35 35" xmlns="http://www.w3.org/2000/svg">
    <g fill="#FFFFFF">
        <path d="m12.1253 5.70504c2.151-.80961 4.5016-.92509 6.7217-.33022.5335.14294 1.0818-.17364 1.2248-.70711.1429-.53346-.1737-1.0818-.7071-1.22474-2.6238-.70302-5.4018-.56655-7.9439.39026-2.54222.9568-4.72083 2.68587-6.2299 4.94436-1.50908 2.25851-2.27281 4.93291-2.18394 7.64781.08888 2.7148 1.02589 5.3335 2.67945 7.4885s3.94059 3.7378 6.53989 4.5263 5.3803.743 7.9524-.1301 4.8061-2.53 6.3883-4.7379 2.433-4.8559 2.433-7.5722c0-.5523-.4477-1-1-1s-1 .4477-1 1c0 2.2984-.7199 4.539-2.0587 6.4073-1.3387 1.8682-3.2291 3.2701-5.4055 4.0089s-4.5295.7773-6.7289.1101c-2.1994-.6671-4.13462-2.0065-5.53378-3.8299-1.39917-1.8234-2.19203-4.0393-2.26723-6.3365-.0752-2.2971.57104-4.5601 1.84795-6.47117 1.27691-1.91103 3.12035-3.37409 5.27146-4.18369z">
        </path>
        <path d="m26.7863 7.61782c.3412-.43427.2658-1.06292-.1685-1.40414-.4342-.34121-1.0629-.26577-1.4041.1685l-10.3036 13.11372-4.203-4.203c-.3905-.3905-1.02368-.3905-1.4142 0-.39053.3905-.39053 1.0237 0 1.4142l5 5c.2022.2022.4813.3082.7668.2911.2854-.017.5499-.1555.7266-.3804z">
        </path>
    </g>
</svg>