<svg fill="#FFFFFF" viewBox="0 0 512.001 512.001" xmlns="http://www.w3.org/2000/svg">
    <path d="m397.928 499.365-141.928-88.819-141.928 88.819c-5.187 3.246-11.824 3.017-16.773-.58-4.95-3.596-7.22-9.838-5.735-15.774l40.627-162.484-126.889-107.532c-4.654-3.945-6.456-10.316-4.556-16.114 1.899-5.798 7.122-9.868 13.209-10.293l165.516-11.562 62.618-155.285c2.288-5.674 7.793-9.39 13.911-9.39s11.623 3.716 13.911 9.39l62.618 155.285 165.516 11.562c6.087.425 11.31 4.495 13.209 10.293 1.9 5.798.099 12.169-4.556 16.114l-126.888 107.533 40.627 162.484c1.484 5.936-.785 12.178-5.735 15.774-4.941 3.589-11.579 3.831-16.774.579zm-133.97-119.23 118.353 74.066-33.867-135.447c-1.386-5.542.496-11.389 4.854-15.082l105.878-89.726-138.093-9.646c-5.726-.4-10.721-4.031-12.866-9.354l-52.216-129.486-52.215 129.486c-2.146 5.322-7.141 8.954-12.866 9.354l-138.093 9.646 105.878 89.726c4.357 3.693 6.239 9.541 4.854 15.082l-33.867 135.447 118.353-74.066c4.867-3.046 11.045-3.046 15.913 0z"/>
</svg>